<?xml version="1.0" encoding="UTF-8"?>
<!DOCTYPE svg PUBLIC "-//W3C//DTD SVG 1.0//EN" "http://www.w3.org/TR/2001/REC-SVG-20010904/DTD/svg10.dtd">
<!-- Creator: CorelDRAW 2019 (64-Bit) -->
<svg xmlns="http://www.w3.org/2000/svg" xml:space="preserve" width="162.56mm" height="91.44mm" version="1.0" style="shape-rendering:geometricPrecision; text-rendering:geometricPrecision; image-rendering:optimizeQuality; fill-rule:evenodd; clip-rule:evenodd"
viewBox="0 0 16256 9144"
 xmlns:xlink="http://www.w3.org/1999/xlink"
 xmlns:xodm="http://www.corel.com/coreldraw/odm/2003">
 <defs>
  <style type="text/css">
   <![CDATA[
    .fil0 {fill:#27A8BF}
   ]]>
  </style>
 </defs>
 <g id="Capa_x0020_1">
  <metadata id="CorelCorpID_0Corel-Layer"/>
  <path class="fil0" d="M416.1 487.14c-38.71,0 -138.45,-5.49 -167.93,6.98 -58.78,24.84 -93.35,101.94 -26.06,169.5 20.75,20.83 124.49,119.11 132.38,134.12 -61.55,0 -123.2,0.25 -184.73,-0.01 -64.64,-0.27 -112.88,-1.21 -144.89,38.79 -35.98,44.97 -26.97,90.99 -26.98,156.49 -0.01,55.04 -4.5,130.53 1.11,183.17 5.19,48.57 37.05,86.35 85.16,97.5 31.58,7.32 497.79,2.95 551.93,2.86 60.58,-0.1 512.44,4.31 549.55,-2.44 48.7,-8.86 80.28,-46.37 87.41,-96.18 3.22,-22.56 3.57,-232.07 0.82,-272.37 -1.88,-27.66 -8.08,-46.79 -25.54,-67.13 -38.81,-45.21 -70.68,-40.44 -142.99,-40.87 -62.37,-0.37 -124.95,-0.02 -187.35,-0.02 9.18,-15.85 69.55,-71.44 87.02,-88.61 28.68,-28.18 70.58,-63.87 78.83,-99.1 13.45,-57.44 -23.2,-99.4 -57.7,-115.02 -30.07,-13.6 -130.09,-7.77 -169.94,-7.77 -3.68,-32.96 -0.89,-295.22 -0.86,-351.32 0.09,-156.56 -84.85,-135.9 -219.25,-135.56 -127.7,0.32 -219.49,-23.88 -219.43,135.56 0.02,59.59 3.17,315.67 -0.56,351.43zm-27.75 390.59l-221.51 0c-103.86,0.03 -90.02,-15.08 -88.74,167.77l-0.25 113.72c0.03,45.99 40.62,37.28 88.99,37.09l938.5 0.15c104.01,-0.02 90.05,16.11 88.73,-168.46l0.26 -110.8c0,-28.68 -11.59,-39.39 -39.44,-39.39l-311.86 0c-10.81,0 -41.82,35.86 -50.24,44.55 -16.51,17.04 -31.51,31.19 -48.24,47.95 -24.8,24.84 -61.72,76.4 -125.05,65.21 -46.05,-8.14 -86.43,-59.05 -109.39,-82.66 -16.54,-17.02 -31.53,-31.19 -48.27,-47.95 -30.1,-30.16 -16.54,-27.18 -73.49,-27.18zm107.75 -768.26c0,137.66 2.99,306.78 0.2,440.31l-0.68 16.67 -168.47 -0.01c-104.6,0.02 -60.04,32.74 -5.8,85.38l251.32 250.1c76.72,76.38 49.29,76.73 158.98,-32 34.37,-34.07 66.33,-66.37 100.55,-100.61 13.39,-13.39 171.34,-164.76 173.53,-179.38 4.39,-29.16 -37.24,-23.37 -60.69,-23.22l-168.45 0.03c-0.25,-41.02 2.37,-462.07 -3.08,-475.17 -7.38,-17.74 -45.03,-12.07 -67.47,-12.07l-180.66 0c-23.59,0 -29.28,6.5 -29.28,29.97z"/>
  <path class="fil0" d="M900.56 1029.52c-58.1,18.7 -36.79,114.84 29.87,94.58 60.96,-18.53 32.97,-114.81 -29.87,-94.58z"/>
  <path class="fil0" d="M1059.21 1030.15c-63.57,23.58 -28.7,114.08 31.16,93.66 22.14,-7.55 40.64,-32.24 31.46,-62.65 -6.44,-21.33 -34.47,-41.44 -62.62,-31.01z"/>
 </g>
</svg>
